<?xml version="1.0" encoding="UTF-8" standalone="no"?>
<!DOCTYPE svg PUBLIC "-//W3C//DTD SVG 1.1//EN"
 "http://www.w3.org/Graphics/SVG/1.1/DTD/svg11.dtd">
<!-- Generated by graphviz version 2.47.0 (20210316.0004)
 -->
<!-- Title: dependencies Pages: 1 -->
<svg width="1252pt" height="287pt"
 viewBox="0.00 0.00 1252.00 287.00" xmlns="http://www.w3.org/2000/svg" xmlns:xlink="http://www.w3.org/1999/xlink">
<g id="graph0" class="graph" transform="scale(1 1) rotate(0) translate(4 283)">
<title>dependencies</title>
<polygon fill="white" stroke="transparent" points="-4,4 -4,-283 1248,-283 1248,4 -4,4"/>
<text text-anchor="start" x="601.01" y="-42.4" font-family="Times-12" font-weight="bold" font-size="14.00">Legend</text>
<polygon fill="#ffffb3" stroke="transparent" points="388,-10 388,-30 408,-30 408,-10 388,-10"/>
<text text-anchor="start" x="411.63" y="-15.4" font-family="Times-12" font-size="14.00"> &#160;Declarations</text>
<polygon fill="#8dd3c7" stroke="transparent" points="501,-10 501,-30 521,-30 521,-10 501,-10"/>
<text text-anchor="start" x="524.73" y="-15.4" font-family="Times-12" font-size="14.00"> &#160;Module</text>
<polygon fill="#80b1d3" stroke="transparent" points="587,-10 587,-30 607,-30 607,-10 587,-10"/>
<text text-anchor="start" x="610.78" y="-15.4" font-family="Times-12" font-size="14.00"> &#160;Bootstrap</text>
<polygon fill="#fdb462" stroke="transparent" points="684,-10 684,-30 704,-30 704,-10 684,-10"/>
<text text-anchor="start" x="707.67" y="-15.4" font-family="Times-12" font-size="14.00"> &#160;Providers</text>
<polygon fill="#fb8072" stroke="transparent" points="780,-10 780,-30 800,-30 800,-10 780,-10"/>
<text text-anchor="start" x="803.73" y="-15.4" font-family="Times-12" font-size="14.00"> &#160;Exports</text>
<g id="clust1" class="cluster">
<title>cluster_AppModule</title>
<polygon fill="none" stroke="black" stroke-dasharray="1,5" points="566,-70 566,-271 938,-271 938,-70 566,-70"/>
</g>
<g id="clust3" class="cluster">
<title>cluster_AppModule_imports</title>
<polygon fill="none" stroke="black" points="712,-78 712,-206 918,-206 918,-78 712,-78"/>
</g>
<g id="clust6" class="cluster">
<title>cluster_AppModule_providers</title>
<polygon fill="none" stroke="black" points="574,-154 574,-206 704,-206 704,-154 574,-154"/>
</g>
<g id="clust7" class="cluster">
<title>cluster_AuthModule</title>
<polygon fill="none" stroke="black" stroke-dasharray="1,5" points="8,-70 8,-138 404,-138 404,-70 8,-70"/>
</g>
<g id="clust10" class="cluster">
<title>cluster_AuthModule_exports</title>
<polygon fill="none" stroke="black" points="290,-78 290,-130 396,-130 396,-78 290,-78"/>
</g>
<g id="clust12" class="cluster">
<title>cluster_AuthModule_providers</title>
<polygon fill="none" stroke="black" points="16,-78 16,-130 282,-130 282,-78 16,-78"/>
</g>
<g id="clust13" class="cluster">
<title>cluster_PostModule</title>
<polygon fill="none" stroke="black" stroke-dasharray="1,5" points="412,-70 412,-138 558,-138 558,-70 412,-70"/>
</g>
<g id="clust18" class="cluster">
<title>cluster_PostModule_providers</title>
<polygon fill="none" stroke="black" points="420,-78 420,-130 550,-130 550,-78 420,-78"/>
</g>
<g id="clust19" class="cluster">
<title>cluster_PrismaModule</title>
<polygon fill="none" stroke="black" stroke-dasharray="1,5" points="946,-146 946,-214 1236,-214 1236,-146 946,-146"/>
</g>
<g id="clust22" class="cluster">
<title>cluster_PrismaModule_exports</title>
<polygon fill="none" stroke="black" points="1112,-154 1112,-206 1228,-206 1228,-154 1112,-154"/>
</g>
<g id="clust24" class="cluster">
<title>cluster_PrismaModule_providers</title>
<polygon fill="none" stroke="black" points="954,-154 954,-206 1104,-206 1104,-154 954,-154"/>
</g>
<!-- AuthModule -->
<g id="node1" class="node">
<title>AuthModule</title>
<polygon fill="#8dd3c7" stroke="black" points="807.55,-198 804.55,-202 783.55,-202 780.55,-198 720.45,-198 720.45,-162 807.55,-162 807.55,-198"/>
<text text-anchor="middle" x="764" y="-175.8" font-family="Times,serif" font-size="14.00">AuthModule</text>
</g>
<!-- AppModule -->
<g id="node4" class="node">
<title>AppModule</title>
<polygon fill="#8dd3c7" stroke="black" points="857.66,-263 854.66,-267 833.66,-267 830.66,-263 774.34,-263 774.34,-227 857.66,-227 857.66,-263"/>
<text text-anchor="middle" x="816" y="-240.8" font-family="Times,serif" font-size="14.00">AppModule</text>
</g>
<!-- AuthModule&#45;&gt;AppModule -->
<g id="edge1" class="edge">
<title>AuthModule&#45;&gt;AppModule</title>
<path fill="none" stroke="black" d="M790.97,-198.11C790.97,-198.11 790.97,-216.99 790.97,-216.99"/>
<polygon fill="black" stroke="black" points="787.47,-216.99 790.97,-226.99 794.47,-216.99 787.47,-216.99"/>
</g>
<!-- AuthService  -->
<g id="node6" class="node">
<title>AuthService </title>
<polygon fill="#fb8072" stroke="black" points="387.98,-122 298.02,-122 298.02,-86 387.98,-86 387.98,-122"/>
<text text-anchor="middle" x="343" y="-99.8" font-family="Times,serif" font-size="14.00">AuthService </text>
</g>
<!-- AuthModule&#45;&gt;AuthService  -->
<g id="edge6" class="edge">
<title>AuthModule&#45;&gt;AuthService </title>
<path fill="none" stroke="black" stroke-dasharray="5,2" d="M785.89,-161.94C785.89,-150.56 785.89,-138 785.89,-138 785.89,-138 343,-138 343,-138 343,-138 343,-132.19 343,-132.19"/>
<polygon fill="black" stroke="black" points="346.5,-132.19 343,-122.19 339.5,-132.19 346.5,-132.19"/>
</g>
<!-- PostModule -->
<g id="node2" class="node">
<title>PostModule</title>
<polygon fill="#8dd3c7" stroke="black" points="909.67,-198 906.67,-202 885.67,-202 882.67,-198 826.33,-198 826.33,-162 909.67,-162 909.67,-198"/>
<text text-anchor="middle" x="868" y="-175.8" font-family="Times,serif" font-size="14.00">PostModule</text>
</g>
<!-- PostModule&#45;&gt;AppModule -->
<g id="edge2" class="edge">
<title>PostModule&#45;&gt;AppModule</title>
<path fill="none" stroke="black" d="M842,-198.11C842,-198.11 842,-216.99 842,-216.99"/>
<polygon fill="black" stroke="black" points="838.5,-216.99 842,-226.99 845.5,-216.99 838.5,-216.99"/>
</g>
<!-- PrismaModule -->
<g id="node3" class="node">
<title>PrismaModule</title>
<polygon fill="#8dd3c7" stroke="black" points="910.43,-122 907.43,-126 886.43,-126 883.43,-122 811.57,-122 811.57,-86 910.43,-86 910.43,-122"/>
<text text-anchor="middle" x="861" y="-99.8" font-family="Times,serif" font-size="14.00">PrismaModule</text>
</g>
<!-- PrismaModule&#45;&gt;AuthModule -->
<g id="edge5" class="edge">
<title>PrismaModule&#45;&gt;AuthModule</title>
<path fill="none" stroke="black" d="M816.58,-122.01C816.58,-144.49 816.58,-180 816.58,-180 816.58,-180 815.71,-180 815.71,-180"/>
<polygon fill="black" stroke="black" points="817.9,-176.5 807.9,-180 817.9,-183.5 817.9,-176.5"/>
</g>
<!-- PrismaModule&#45;&gt;PostModule -->
<g id="edge9" class="edge">
<title>PrismaModule&#45;&gt;PostModule</title>
<path fill="none" stroke="black" d="M881.94,-122.01C881.94,-122.01 881.94,-151.85 881.94,-151.85"/>
<polygon fill="black" stroke="black" points="878.44,-151.85 881.94,-161.85 885.44,-151.85 878.44,-151.85"/>
</g>
<!-- PrismaModule&#45;&gt;AppModule -->
<g id="edge3" class="edge">
<title>PrismaModule&#45;&gt;AppModule</title>
<path fill="none" stroke="black" d="M821.37,-122.14C821.37,-122.14 821.37,-216.93 821.37,-216.93"/>
<polygon fill="black" stroke="black" points="817.87,-216.92 821.37,-226.93 824.87,-216.93 817.87,-216.92"/>
</g>
<!-- PrismaService  -->
<g id="node10" class="node">
<title>PrismaService </title>
<polygon fill="#fb8072" stroke="black" points="1220.36,-198 1119.64,-198 1119.64,-162 1220.36,-162 1220.36,-198"/>
<text text-anchor="middle" x="1170" y="-175.8" font-family="Times,serif" font-size="14.00">PrismaService </text>
</g>
<!-- PrismaModule&#45;&gt;PrismaService  -->
<g id="edge11" class="edge">
<title>PrismaModule&#45;&gt;PrismaService </title>
<path fill="none" stroke="black" stroke-dasharray="5,2" d="M910.3,-98C997.54,-98 1170,-98 1170,-98 1170,-98 1170,-151.8 1170,-151.8"/>
<polygon fill="black" stroke="black" points="1166.5,-151.8 1170,-161.8 1173.5,-151.8 1166.5,-151.8"/>
</g>
<!-- AppService -->
<g id="node5" class="node">
<title>AppService</title>
<ellipse fill="#fdb462" stroke="black" cx="639" cy="-180" rx="56.74" ry="18"/>
<text text-anchor="middle" x="639" y="-175.8" font-family="Times,serif" font-size="14.00">AppService</text>
</g>
<!-- AppService&#45;&gt;AppModule -->
<g id="edge4" class="edge">
<title>AppService&#45;&gt;AppModule</title>
<path fill="none" stroke="black" d="M639,-198.11C639,-217.34 639,-245 639,-245 639,-245 764.05,-245 764.05,-245"/>
<polygon fill="black" stroke="black" points="764.05,-248.5 774.05,-245 764.05,-241.5 764.05,-248.5"/>
</g>
<!-- AuthService -->
<g id="node7" class="node">
<title>AuthService</title>
<ellipse fill="#fdb462" stroke="black" cx="215" cy="-104" rx="59.11" ry="18"/>
<text text-anchor="middle" x="215" y="-99.8" font-family="Times,serif" font-size="14.00">AuthService</text>
</g>
<!-- AuthService&#45;&gt;AuthModule -->
<g id="edge7" class="edge">
<title>AuthService&#45;&gt;AuthModule</title>
<path fill="none" stroke="black" d="M215,-122.06C215,-133.44 215,-146 215,-146 215,-146 764,-146 764,-146 764,-146 764,-151.81 764,-151.81"/>
<polygon fill="black" stroke="black" points="760.5,-151.81 764,-161.81 767.5,-151.81 760.5,-151.81"/>
</g>
<!-- JwtStrategy -->
<g id="node8" class="node">
<title>JwtStrategy</title>
<ellipse fill="#fdb462" stroke="black" cx="81" cy="-104" rx="56.76" ry="18"/>
<text text-anchor="middle" x="81" y="-99.8" font-family="Times,serif" font-size="14.00">JwtStrategy</text>
</g>
<!-- JwtStrategy&#45;&gt;AuthModule -->
<g id="edge8" class="edge">
<title>JwtStrategy&#45;&gt;AuthModule</title>
<path fill="none" stroke="black" d="M81,-122.05C81,-136.37 81,-154 81,-154 81,-154 742.11,-154 742.11,-154 742.11,-154 742.11,-154.79 742.11,-154.79"/>
<polygon fill="black" stroke="black" points="738.61,-151.94 742.11,-161.94 745.61,-151.94 738.61,-151.94"/>
</g>
<!-- PostService -->
<g id="node9" class="node">
<title>PostService</title>
<ellipse fill="#fdb462" stroke="black" cx="485" cy="-104" rx="56.76" ry="18"/>
<text text-anchor="middle" x="485" y="-99.8" font-family="Times,serif" font-size="14.00">PostService</text>
</g>
<!-- PostService&#45;&gt;PostModule -->
<g id="edge10" class="edge">
<title>PostService&#45;&gt;PostModule</title>
<path fill="none" stroke="black" d="M485,-122.06C485,-126.49 485,-130 485,-130 485,-130 854.06,-130 854.06,-130 854.06,-130 854.06,-151.95 854.06,-151.95"/>
<polygon fill="black" stroke="black" points="850.56,-151.95 854.06,-161.95 857.56,-151.95 850.56,-151.95"/>
</g>
<!-- PrismaService -->
<g id="node11" class="node">
<title>PrismaService</title>
<ellipse fill="#fdb462" stroke="black" cx="1029" cy="-180" rx="66.63" ry="18"/>
<text text-anchor="middle" x="1029" y="-175.8" font-family="Times,serif" font-size="14.00">PrismaService</text>
</g>
<!-- PrismaService&#45;&gt;PrismaModule -->
<g id="edge12" class="edge">
<title>PrismaService&#45;&gt;PrismaModule</title>
<path fill="none" stroke="black" d="M1029,-161.97C1029,-141.23 1029,-110 1029,-110 1029,-110 920.5,-110 920.5,-110"/>
<polygon fill="black" stroke="black" points="920.5,-106.5 910.5,-110 920.5,-113.5 920.5,-106.5"/>
</g>
</g>
</svg>
